{
	"asset":{
		"generator":"Khronos glTF Blender I/O v3.6.27",
		"version":"2.0"
	},
	"scene":0,
	"scenes":[
		{
			"name":"Scene",
			"nodes":[
				0
			]
		}
	],
	"nodes":[
		{
			"mesh":0,
			"name":"Sphere"
		}
	],
	"materials":[
		{
			"doubleSided":true,
			"name":"Material.001",
			"pbrMetallicRoughness":{
				"baseColorTexture":{
					"index":0
				},
				"metallicFactor":0,
				"roughnessFactor":0.5
			}
		},
		{
			"doubleSided":true,
			"name":"Material.002",
			"pbrMetallicRoughness":{
				"baseColorFactor":[
					0,
					0,
					0,
					1
				],
				"metallicFactor":0,
				"roughnessFactor":0.5
			}
		}
	],
	"meshes":[
		{
			"name":"Sphere",
			"primitives":[
				{
					"attributes":{
						"POSITION":0,
						"NORMAL":1,
						"TEXCOORD_0":2
					},
					"indices":3,
					"material":0
				},
				{
					"attributes":{
						"POSITION":4,
						"NORMAL":5,
						"TEXCOORD_0":6
					},
					"indices":7,
					"material":1
				}
			]
		}
	],
	"textures":[
		{
			"sampler":0,
			"source":0
		}
	],
	"images":[
		{
			"bufferView":4,
			"mimeType":"image/png",
			"name":"rzkstoetkiseot"
		}
	],
	"accessors":[
		{
			"bufferView":0,
			"componentType":5126,
			"count":17280,
			"max":[
				1.0000003576278687,
				0.9978589415550232,
				1.0000005960464478
			],
			"min":[
				-1.0000009536743164,
				-0.9914448857307434,
				-1
			],
			"type":"VEC3"
		},
		{
			"bufferView":1,
			"componentType":5126,
			"count":17280,
			"type":"VEC3"
		},
		{
			"bufferView":2,
			"componentType":5126,
			"count":17280,
			"type":"VEC2"
		},
		{
			"bufferView":3,
			"componentType":5123,
			"count":25920,
			"type":"SCALAR"
		},
		{
			"bufferView":5,
			"componentType":5126,
			"count":960,
			"max":[
				0.13052628934383392,
				1,
				0.1305263787508011
			],
			"min":[
				-0.13052645325660706,
				-1,
				-0.13052619993686676
			],
			"type":"VEC3"
		},
		{
			"bufferView":6,
			"componentType":5126,
			"count":960,
			"type":"VEC3"
		},
		{
			"bufferView":7,
			"componentType":5126,
			"count":960,
			"type":"VEC2"
		},
		{
			"bufferView":8,
			"componentType":5123,
			"count":1152,
			"type":"SCALAR"
		}
	],
	"bufferViews":[
		{
			"buffer":0,
			"byteLength":207360,
			"byteOffset":0,
			"target":34962
		},
		{
			"buffer":0,
			"byteLength":207360,
			"byteOffset":207360,
			"target":34962
		},
		{
			"buffer":0,
			"byteLength":138240,
			"byteOffset":414720,
			"target":34962
		},
		{
			"buffer":0,
			"byteLength":51840,
			"byteOffset":552960,
			"target":34963
		},
		{
			"buffer":0,
			"byteLength":209494,
			"byteOffset":604800
		},
		{
			"buffer":0,
			"byteLength":11520,
			"byteOffset":814296,
			"target":34962
		},
		{
			"buffer":0,
			"byteLength":11520,
			"byteOffset":825816,
			"target":34962
		},
		{
			"buffer":0,
			"byteLength":7680,
			"byteOffset":837336,
			"target":34962
		},
		{
			"buffer":0,
			"byteLength":2304,
			"byteOffset":845016,
			"target":34963
		}
	],
	"samplers":[
		{
			"magFilter":9729,
			"minFilter":9987
		}
	],
	"buffers":[
		{
			"byteLength":847320,
			"uri":"data:application/octet-stream;base64,"
		}
	]
}
